<svg width="76" height="37" viewBox="0 0 76 37" fill="none" xmlns="http://www.w3.org/2000/svg">
<g id="Opal Logo" clip-path="url(#clip0_1017_10070)">
<g id="Vector">
<path d="M34.0493 11.8868V35.9979H37.0397V27.0285H37.1089C38.2262 29.0103 40.2542 30.1402 42.7982 30.1402C47.3019 30.1402 50.3787 26.4546 50.3787 20.9268C50.3787 15.3991 47.2844 11.7148 42.7293 11.7148C40.2542 11.7148 38.0023 12.9494 36.9539 14.8265H36.8851V11.8868H34.0493ZM42.1449 14.39C45.2564 14.39 47.3191 16.9803 47.3191 20.9264C47.3191 24.8899 45.2564 27.4627 42.1449 27.4627C39.1026 27.4627 37.0227 24.8204 37.0227 20.9264C37.0227 17.0499 39.1026 14.39 42.1449 14.39Z" fill="url(#paint0_linear_1017_10070)"/>
<path d="M34.0493 11.8868V35.9979H37.0397V27.0285H37.1089C38.2262 29.0103 40.2542 30.1402 42.7982 30.1402C47.3019 30.1402 50.3787 26.4546 50.3787 20.9268C50.3787 15.3991 47.2844 11.7148 42.7293 11.7148C40.2542 11.7148 38.0023 12.9494 36.9539 14.8265H36.8851V11.8868H34.0493ZM42.1449 14.39C45.2564 14.39 47.3191 16.9803 47.3191 20.9264C47.3191 24.8899 45.2564 27.4627 42.1449 27.4627C39.1026 27.4627 37.0227 24.8204 37.0227 20.9264C37.0227 17.0499 39.1026 14.39 42.1449 14.39Z" fill="white"/>
</g>
<g id="Vector_2">
<path fill-rule="evenodd" clip-rule="evenodd" d="M37.4334 13.2829C38.7395 11.9574 40.6756 11.1641 42.7276 11.1641C45.1654 11.1641 47.2336 12.1554 48.683 13.8951C50.1253 15.6265 50.927 18.0629 50.927 20.926C50.927 23.7884 50.1301 26.2244 48.6995 27.9559C47.2619 29.6959 45.2107 30.6894 42.7964 30.6894C40.6813 30.6894 38.8667 29.9527 37.5879 28.603V35.9971C37.5879 36.3009 37.3417 36.5472 37.0378 36.5472H34.0477C33.7438 36.5472 33.4976 36.3009 33.4976 35.9971V11.8861C33.4976 11.5823 33.7438 11.3361 34.0477 11.3361H36.8833C37.1871 11.3361 37.4334 11.5823 37.4334 11.8861V13.2829ZM42.7276 12.2641C40.4216 12.2641 38.3697 13.4156 37.4324 15.0939C37.3352 15.2679 37.1514 15.3757 36.9522 15.3757H36.8833C36.5797 15.3757 36.3334 15.1295 36.3334 14.8257V12.4361H34.5976V35.4471H36.4879V27.0277C36.4879 26.7239 36.7342 26.4777 37.0378 26.4777H37.1072C37.3057 26.4777 37.4887 26.5847 37.5863 26.7575C38.5954 28.5476 40.4281 29.5894 42.7964 29.5894C44.8859 29.5894 46.6248 28.74 47.8516 27.2552C49.0853 25.762 49.8269 23.5914 49.8269 20.926C49.8269 18.2614 49.0815 16.0919 47.8379 14.5992C46.6014 13.1149 44.8449 12.2641 42.7276 12.2641ZM38.8743 16.5429C38.066 17.5747 37.571 19.081 37.571 20.9255C37.571 22.7794 38.0663 24.2852 38.874 25.3144C39.6736 26.3336 40.7969 26.9119 42.1433 26.9119C43.5328 26.9119 44.6672 26.3441 45.4665 25.338C46.2749 24.3203 46.7674 22.8173 46.7674 20.9255C46.7674 19.0431 46.2752 17.5396 45.4661 16.5193C44.6662 15.5104 43.5315 14.9392 42.1433 14.9392C40.7981 14.9392 39.6746 15.5208 38.8743 16.5429ZM38.0082 15.8646C39.0085 14.5875 40.4461 13.8392 42.1433 13.8392C43.8664 13.8392 45.3189 14.5632 46.328 15.8359C47.3283 17.0972 47.8674 18.862 47.8674 20.9255C47.8674 22.9976 47.3284 24.7626 46.3278 26.0222C45.3179 27.2934 43.8653 28.012 42.1433 28.012C40.4473 28.012 39.0094 27.269 38.0085 25.9935C37.0158 24.7282 36.4711 22.9657 36.4711 20.9255C36.4711 18.8937 37.0159 17.1318 38.0082 15.8646Z" fill="url(#paint1_linear_1017_10070)"/>
<path fill-rule="evenodd" clip-rule="evenodd" d="M37.4334 13.2829C38.7395 11.9574 40.6756 11.1641 42.7276 11.1641C45.1654 11.1641 47.2336 12.1554 48.683 13.8951C50.1253 15.6265 50.927 18.0629 50.927 20.926C50.927 23.7884 50.1301 26.2244 48.6995 27.9559C47.2619 29.6959 45.2107 30.6894 42.7964 30.6894C40.6813 30.6894 38.8667 29.9527 37.5879 28.603V35.9971C37.5879 36.3009 37.3417 36.5472 37.0378 36.5472H34.0477C33.7438 36.5472 33.4976 36.3009 33.4976 35.9971V11.8861C33.4976 11.5823 33.7438 11.3361 34.0477 11.3361H36.8833C37.1871 11.3361 37.4334 11.5823 37.4334 11.8861V13.2829ZM42.7276 12.2641C40.4216 12.2641 38.3697 13.4156 37.4324 15.0939C37.3352 15.2679 37.1514 15.3757 36.9522 15.3757H36.8833C36.5797 15.3757 36.3334 15.1295 36.3334 14.8257V12.4361H34.5976V35.4471H36.4879V27.0277C36.4879 26.7239 36.7342 26.4777 37.0378 26.4777H37.1072C37.3057 26.4777 37.4887 26.5847 37.5863 26.7575C38.5954 28.5476 40.4281 29.5894 42.7964 29.5894C44.8859 29.5894 46.6248 28.74 47.8516 27.2552C49.0853 25.762 49.8269 23.5914 49.8269 20.926C49.8269 18.2614 49.0815 16.0919 47.8379 14.5992C46.6014 13.1149 44.8449 12.2641 42.7276 12.2641ZM38.8743 16.5429C38.066 17.5747 37.571 19.081 37.571 20.9255C37.571 22.7794 38.0663 24.2852 38.874 25.3144C39.6736 26.3336 40.7969 26.9119 42.1433 26.9119C43.5328 26.9119 44.6672 26.3441 45.4665 25.338C46.2749 24.3203 46.7674 22.8173 46.7674 20.9255C46.7674 19.0431 46.2752 17.5396 45.4661 16.5193C44.6662 15.5104 43.5315 14.9392 42.1433 14.9392C40.7981 14.9392 39.6746 15.5208 38.8743 16.5429ZM38.0082 15.8646C39.0085 14.5875 40.4461 13.8392 42.1433 13.8392C43.8664 13.8392 45.3189 14.5632 46.328 15.8359C47.3283 17.0972 47.8674 18.862 47.8674 20.9255C47.8674 22.9976 47.3284 24.7626 46.3278 26.0222C45.3179 27.2934 43.8653 28.012 42.1433 28.012C40.4473 28.012 39.0094 27.269 38.0085 25.9935C37.0158 24.7282 36.4711 22.9657 36.4711 20.9255C36.4711 18.8937 37.0159 17.1318 38.0082 15.8646Z" fill="white"/>
</g>
<g id="Vector_3">
<path d="M59.5719 19.6078C55.4461 19.8512 53.0913 21.7635 53.0913 24.8576C53.0913 28.1085 55.4808 30.2987 59.0391 30.2987C61.4454 30.2987 63.7141 28.9254 64.7797 26.8569H64.8487V29.9685H67.6848V17.5556C67.6848 14.0272 64.9862 11.7148 60.8783 11.7148C56.9417 11.7148 53.9679 14.0096 53.8821 17.1214H56.7352C57.0794 15.4179 58.6265 14.3747 60.8263 14.3747C63.2847 14.3747 64.6941 15.6263 64.6941 17.8165V19.3115L59.5719 19.6078ZM64.6941 23.1022C64.6941 25.7096 62.528 27.7089 59.7092 27.7089C57.5603 27.7089 56.134 26.579 56.134 24.8576C56.134 23.1543 57.5105 22.111 59.9156 21.9547L64.6941 21.6593V23.1022Z" fill="url(#paint2_linear_1017_10070)"/>
<path d="M59.5719 19.6078C55.4461 19.8512 53.0913 21.7635 53.0913 24.8576C53.0913 28.1085 55.4808 30.2987 59.0391 30.2987C61.4454 30.2987 63.7141 28.9254 64.7797 26.8569H64.8487V29.9685H67.6848V17.5556C67.6848 14.0272 64.9862 11.7148 60.8783 11.7148C56.9417 11.7148 53.9679 14.0096 53.8821 17.1214H56.7352C57.0794 15.4179 58.6265 14.3747 60.8263 14.3747C63.2847 14.3747 64.6941 15.6263 64.6941 17.8165V19.3115L59.5719 19.6078ZM64.6941 23.1022C64.6941 25.7096 62.528 27.7089 59.7092 27.7089C57.5603 27.7089 56.134 26.579 56.134 24.8576C56.134 23.1543 57.5105 22.111 59.9156 21.9547L64.6941 21.6593V23.1022Z" fill="white"/>
</g>
<g id="Vector_4">
<path fill-rule="evenodd" clip-rule="evenodd" d="M53.3326 17.1054C53.4295 13.5865 56.7673 11.1641 60.8786 11.1641C63.0326 11.1641 64.8711 11.7707 66.1804 12.8938C67.4977 14.0238 68.235 15.6401 68.235 17.5548V29.9678C68.235 30.2716 67.9889 30.5178 67.6851 30.5178H64.8488C64.5452 30.5178 64.2989 30.2716 64.2989 29.9678V28.5072C62.9906 29.9574 61.0589 30.8479 59.0392 30.8479C57.1479 30.8479 55.5204 30.2646 54.3596 29.2022C53.1948 28.1359 52.5415 26.6241 52.5415 24.8568C52.5415 23.1542 53.1973 21.7417 54.4384 20.7357C55.6618 19.744 57.4071 19.1839 59.5397 19.0581L64.1443 18.7916V17.8158C64.1443 16.8436 63.8358 16.1462 63.3168 15.6844C62.7885 15.2146 61.9684 14.924 60.8266 14.924C58.7945 14.924 57.5503 15.8647 57.2746 17.2294C57.2228 17.4861 56.9973 17.6706 56.7355 17.6706H53.8824C53.7339 17.6706 53.5918 17.6104 53.4882 17.5041C53.3846 17.3977 53.3285 17.2538 53.3326 17.1054ZM54.4855 16.5705H56.312C56.8873 14.8053 58.6352 13.8239 60.8266 13.8239C62.1431 13.8239 63.2569 14.1591 64.0479 14.8625C64.8481 15.5743 65.2444 16.5976 65.2444 17.8158V19.3106C65.2444 19.6022 65.017 19.8429 64.726 19.8597L59.6045 20.1561L59.6041 20.1562C57.6112 20.2737 56.1165 20.7915 55.131 21.5902C54.1633 22.3746 53.6416 23.4653 53.6416 24.8568C53.6416 26.3404 54.183 27.5492 55.1025 28.3907C56.026 29.2361 57.3725 29.7479 59.0392 29.7479C61.245 29.7479 63.3222 28.4849 64.2911 26.6042C64.3855 26.4211 64.5741 26.3061 64.78 26.3061H64.8488C65.1526 26.3061 65.3989 26.5523 65.3989 26.8562V29.4179H67.1351V17.5548C67.1351 15.941 66.5231 14.637 65.4642 13.7287C64.3972 12.8135 62.8325 12.2641 60.8786 12.2641C57.3828 12.2641 54.8816 14.1355 54.4855 16.5705ZM65.0711 21.2577C65.1816 21.3618 65.2444 21.5066 65.2444 21.6585V23.1013C65.2444 26.0527 62.7901 28.258 59.7093 28.258C58.5437 28.258 57.5192 27.9518 56.7734 27.3583C56.0165 26.7556 55.5842 25.8842 55.5842 24.8568C55.5842 23.8363 56.0063 22.9872 56.7889 22.3883C57.5506 21.8058 58.6154 21.4873 59.8802 21.4051H59.8818L64.6603 21.1095C64.8118 21.1001 64.9605 21.1538 65.0711 21.2577ZM64.1443 22.2435L59.9515 22.5028C59.9512 22.5028 59.9509 22.5028 59.9509 22.5028C58.8109 22.577 57.9851 22.8583 57.4573 23.262C56.9505 23.6498 56.6843 24.174 56.6843 24.8568C56.6843 25.5508 56.9651 26.1048 57.4586 26.4976C57.9632 26.8993 58.7262 27.1581 59.7093 27.1581C62.2663 27.1581 64.1443 25.3646 64.1443 23.1013V22.2435Z" fill="url(#paint3_linear_1017_10070)"/>
<path fill-rule="evenodd" clip-rule="evenodd" d="M53.3326 17.1054C53.4295 13.5865 56.7673 11.1641 60.8786 11.1641C63.0326 11.1641 64.8711 11.7707 66.1804 12.8938C67.4977 14.0238 68.235 15.6401 68.235 17.5548V29.9678C68.235 30.2716 67.9889 30.5178 67.6851 30.5178H64.8488C64.5452 30.5178 64.2989 30.2716 64.2989 29.9678V28.5072C62.9906 29.9574 61.0589 30.8479 59.0392 30.8479C57.1479 30.8479 55.5204 30.2646 54.3596 29.2022C53.1948 28.1359 52.5415 26.6241 52.5415 24.8568C52.5415 23.1542 53.1973 21.7417 54.4384 20.7357C55.6618 19.744 57.4071 19.1839 59.5397 19.0581L64.1443 18.7916V17.8158C64.1443 16.8436 63.8358 16.1462 63.3168 15.6844C62.7885 15.2146 61.9684 14.924 60.8266 14.924C58.7945 14.924 57.5503 15.8647 57.2746 17.2294C57.2228 17.4861 56.9973 17.6706 56.7355 17.6706H53.8824C53.7339 17.6706 53.5918 17.6104 53.4882 17.5041C53.3846 17.3977 53.3285 17.2538 53.3326 17.1054ZM54.4855 16.5705H56.312C56.8873 14.8053 58.6352 13.8239 60.8266 13.8239C62.1431 13.8239 63.2569 14.1591 64.0479 14.8625C64.8481 15.5743 65.2444 16.5976 65.2444 17.8158V19.3106C65.2444 19.6022 65.017 19.8429 64.726 19.8597L59.6045 20.1561L59.6041 20.1562C57.6112 20.2737 56.1165 20.7915 55.131 21.5902C54.1633 22.3746 53.6416 23.4653 53.6416 24.8568C53.6416 26.3404 54.183 27.5492 55.1025 28.3907C56.026 29.2361 57.3725 29.7479 59.0392 29.7479C61.245 29.7479 63.3222 28.4849 64.2911 26.6042C64.3855 26.4211 64.5741 26.3061 64.78 26.3061H64.8488C65.1526 26.3061 65.3989 26.5523 65.3989 26.8562V29.4179H67.1351V17.5548C67.1351 15.941 66.5231 14.637 65.4642 13.7287C64.3972 12.8135 62.8325 12.2641 60.8786 12.2641C57.3828 12.2641 54.8816 14.1355 54.4855 16.5705ZM65.0711 21.2577C65.1816 21.3618 65.2444 21.5066 65.2444 21.6585V23.1013C65.2444 26.0527 62.7901 28.258 59.7093 28.258C58.5437 28.258 57.5192 27.9518 56.7734 27.3583C56.0165 26.7556 55.5842 25.8842 55.5842 24.8568C55.5842 23.8363 56.0063 22.9872 56.7889 22.3883C57.5506 21.8058 58.6154 21.4873 59.8802 21.4051H59.8818L64.6603 21.1095C64.8118 21.1001 64.9605 21.1538 65.0711 21.2577ZM64.1443 22.2435L59.9515 22.5028C59.9512 22.5028 59.9509 22.5028 59.9509 22.5028C58.8109 22.577 57.9851 22.8583 57.4573 23.262C56.9505 23.6498 56.6843 24.174 56.6843 24.8568C56.6843 25.5508 56.9651 26.1048 57.4586 26.4976C57.9632 26.8993 58.7262 27.1581 59.7093 27.1581C62.2663 27.1581 64.1443 25.3646 64.1443 23.1013V22.2435Z" fill="white"/>
</g>
<g id="Vector_5">
<path d="M74.8711 4.88086H71.8799V29.9651H74.8711V4.88086Z" fill="url(#paint4_linear_1017_10070)"/>
<path d="M74.8711 4.88086H71.8799V29.9651H74.8711V4.88086Z" fill="white"/>
</g>
<g id="Vector_6">
<path fill-rule="evenodd" clip-rule="evenodd" d="M71.3286 4.88203C71.3286 4.57828 71.5749 4.33203 71.8786 4.33203H74.8698C75.1736 4.33203 75.4197 4.57828 75.4197 4.88203V29.9663C75.4197 30.27 75.1736 30.5163 74.8698 30.5163H71.8786C71.5749 30.5163 71.3286 30.27 71.3286 29.9663V4.88203ZM72.4287 5.43204V29.4162H74.3198V5.43204H72.4287Z" fill="url(#paint5_linear_1017_10070)"/>
<path fill-rule="evenodd" clip-rule="evenodd" d="M71.3286 4.88203C71.3286 4.57828 71.5749 4.33203 71.8786 4.33203H74.8698C75.1736 4.33203 75.4197 4.57828 75.4197 4.88203V29.9663C75.4197 30.27 75.1736 30.5163 74.8698 30.5163H71.8786C71.5749 30.5163 71.3286 30.27 71.3286 29.9663V4.88203ZM72.4287 5.43204V29.4162H74.3198V5.43204H72.4287Z" fill="white"/>
</g>
<g id="Vector_7">
<path d="M15.6402 0.71875C7.28392 0.71875 0.510254 7.56946 0.510254 16.0203C0.510254 24.4711 7.28392 31.3213 15.6402 31.3213C23.9965 31.3213 30.7705 24.4711 30.7705 16.0203C30.7705 7.56946 23.9965 0.71875 15.6402 0.71875ZM26.9232 20.3014C26.3673 21.4029 26.0134 21.7721 24.0636 22.866C22.1137 23.9599 17.7428 26.0621 16.3129 26.6617C14.8831 27.2612 13.372 27.3622 12.3808 26.7294C11.3897 26.0966 6.25503 22.0285 5.50768 21.3275C4.76033 20.6264 4.06139 19.621 4.06139 18.1134C4.06139 16.3014 4.54985 15.3094 5.8163 13.412C7.2546 11.2587 8.74088 9.05232 9.43982 8.14608C10.4114 6.76157 11.7698 5.73542 12.2671 5.46194C12.7645 5.18844 13.2885 4.95627 13.8107 4.91496C13.8107 4.91496 18.0355 4.67559 20.3752 5.46194C20.3752 5.46194 21.0186 5.59666 21.4801 5.97478C21.9738 6.37896 22.2923 7.1168 22.6825 7.92378C23.0728 8.73078 24.1773 11.0867 24.6324 12.1299C25.0875 13.1731 26.5498 16.4037 26.9232 17.5638C27.2967 18.7237 27.3375 19.483 26.9232 20.3014Z" fill="url(#paint6_linear_1017_10070)"/>
<path d="M15.6402 0.71875C7.28392 0.71875 0.510254 7.56946 0.510254 16.0203C0.510254 24.4711 7.28392 31.3213 15.6402 31.3213C23.9965 31.3213 30.7705 24.4711 30.7705 16.0203C30.7705 7.56946 23.9965 0.71875 15.6402 0.71875ZM26.9232 20.3014C26.3673 21.4029 26.0134 21.7721 24.0636 22.866C22.1137 23.9599 17.7428 26.0621 16.3129 26.6617C14.8831 27.2612 13.372 27.3622 12.3808 26.7294C11.3897 26.0966 6.25503 22.0285 5.50768 21.3275C4.76033 20.6264 4.06139 19.621 4.06139 18.1134C4.06139 16.3014 4.54985 15.3094 5.8163 13.412C7.2546 11.2587 8.74088 9.05232 9.43982 8.14608C10.4114 6.76157 11.7698 5.73542 12.2671 5.46194C12.7645 5.18844 13.2885 4.95627 13.8107 4.91496C13.8107 4.91496 18.0355 4.67559 20.3752 5.46194C20.3752 5.46194 21.0186 5.59666 21.4801 5.97478C21.9738 6.37896 22.2923 7.1168 22.6825 7.92378C23.0728 8.73078 24.1773 11.0867 24.6324 12.1299C25.0875 13.1731 26.5498 16.4037 26.9232 17.5638C27.2967 18.7237 27.3375 19.483 26.9232 20.3014Z" fill="white"/>
</g>
</g>
<defs>
<linearGradient id="paint0_linear_1017_10070" x1="34.1525" y1="23.8564" x2="50.4635" y2="23.8564" gradientUnits="userSpaceOnUse">
<stop stop-color="#ADFFA6"/>
<stop offset="1" stop-color="#F6FF90"/>
</linearGradient>
<linearGradient id="paint1_linear_1017_10070" x1="33.6077" y1="23.8556" x2="51.0175" y2="23.8556" gradientUnits="userSpaceOnUse">
<stop stop-color="#ADFFA6"/>
<stop offset="1" stop-color="#F6FF90"/>
</linearGradient>
<linearGradient id="paint2_linear_1017_10070" x1="53.1836" y1="21.0068" x2="67.7605" y2="21.0068" gradientUnits="userSpaceOnUse">
<stop stop-color="#ADFFA6"/>
<stop offset="1" stop-color="#F6FF90"/>
</linearGradient>
<linearGradient id="paint3_linear_1017_10070" x1="52.6407" y1="21.006" x2="68.3165" y2="21.006" gradientUnits="userSpaceOnUse">
<stop stop-color="#ADFFA6"/>
<stop offset="1" stop-color="#F6FF90"/>
</linearGradient>
<linearGradient id="paint4_linear_1017_10070" x1="71.8988" y1="17.423" x2="74.8866" y2="17.423" gradientUnits="userSpaceOnUse">
<stop stop-color="#ADFFA6"/>
<stop offset="1" stop-color="#F6FF90"/>
</linearGradient>
<linearGradient id="paint5_linear_1017_10070" x1="71.3545" y1="17.4242" x2="75.441" y2="17.4242" gradientUnits="userSpaceOnUse">
<stop stop-color="#ADFFA6"/>
<stop offset="1" stop-color="#F6FF90"/>
</linearGradient>
<linearGradient id="paint6_linear_1017_10070" x1="0.701558" y1="16.02" x2="30.9276" y2="16.02" gradientUnits="userSpaceOnUse">
<stop stop-color="#ADFFA6"/>
<stop offset="1" stop-color="#F6FF90"/>
</linearGradient>
<clipPath id="clip0_1017_10070">
<rect width="74.9268" height="36" fill="white" transform="translate(0.5 0.685547)"/>
</clipPath>
</defs>
</svg>
