<svg width="146" height="58" viewBox="0 0 146 58" fill="none" xmlns="http://www.w3.org/2000/svg">
<g clip-path="url(#clip0_2_17205)">
<path d="M38.4547 14.8158C38.0736 14.8158 37.7176 14.8742 37.3873 14.9911C37.0625 15.1081 36.7652 15.225 36.4958 15.342C36.2264 15.4538 35.9928 15.5097 35.7945 15.5097C35.5864 15.5097 35.3551 15.4564 35.1009 15.3496C34.847 15.2377 34.5726 15.1284 34.2779 15.0217C33.9882 14.9149 33.6783 14.8615 33.348 14.8615C32.7231 14.8615 32.1209 15.0318 31.5417 15.3725C30.9625 15.7131 30.4874 16.2164 30.1164 16.8825C29.7455 17.5485 29.5601 18.3696 29.5601 19.3457C29.5601 19.9559 29.6312 20.5659 29.7735 21.1761C29.9157 21.7861 30.1063 22.3632 30.3451 22.9072C30.5839 23.4512 30.8481 23.9317 31.1377 24.3486C31.5138 24.8723 31.8796 25.3222 32.2353 25.6984C32.596 26.0747 33.0127 26.2628 33.4852 26.2628C33.7952 26.2628 34.0645 26.2119 34.2931 26.1102C34.5218 26.0086 34.7632 25.9043 35.017 25.7976C35.2763 25.6959 35.5988 25.6451 35.985 25.6451C36.28 25.6451 36.5261 25.6755 36.7244 25.7366C36.9228 25.7976 37.1028 25.8662 37.2655 25.9425C37.4331 26.0238 37.6086 26.095 37.7914 26.156C37.9742 26.217 38.1954 26.2475 38.4547 26.2475C38.7951 26.2475 39.0998 26.156 39.3691 25.973C39.6435 25.795 39.8951 25.5637 40.1237 25.279C40.3573 24.9943 40.5836 24.6968 40.8021 24.3867C41.0408 24.0359 41.2337 23.7004 41.3812 23.38C41.5337 23.0547 41.6455 22.7903 41.7166 22.5869C41.7876 22.3785 41.826 22.2641 41.8311 22.2437C41.8155 22.2386 41.7038 22.1827 41.4957 22.0759C41.2923 21.9641 41.0587 21.7887 40.7944 21.5497C40.5351 21.3108 40.3065 20.9981 40.1085 20.6117C39.9152 20.2253 39.819 19.7525 39.819 19.1932C39.819 18.7052 39.8951 18.2857 40.0476 17.9349C40.2052 17.579 40.388 17.2867 40.5964 17.0579C40.8045 16.824 40.99 16.6461 41.1526 16.524C41.3203 16.402 41.4169 16.3334 41.4422 16.3181C41.1883 15.9521 40.9112 15.6674 40.6115 15.464C40.3115 15.2606 40.0169 15.1132 39.7274 15.0217C39.4378 14.9301 39.1786 14.8742 38.95 14.8539C38.7264 14.8285 38.5611 14.8158 38.4547 14.8158ZM37.921 13.5803C38.1547 13.3007 38.3453 12.9778 38.4927 12.6118C38.6398 12.2406 38.7136 11.8593 38.7136 11.4678C38.7136 11.356 38.7062 11.2568 38.6907 11.1704C38.3095 11.1856 37.9109 11.3 37.4941 11.5136C37.0827 11.7271 36.7423 11.994 36.4729 12.3143C36.2544 12.5584 36.0615 12.8634 35.8938 13.2295C35.7261 13.5956 35.6423 13.9718 35.6423 14.3582C35.6423 14.4192 35.6446 14.4751 35.6497 14.526C35.6598 14.5768 35.6675 14.6124 35.6726 14.6327C35.7386 14.648 35.8073 14.6556 35.8783 14.6556C36.2187 14.6556 36.5796 14.5539 36.9608 14.3505C37.347 14.1472 37.6668 13.8904 37.921 13.5803ZM45.9239 24.6384H48.34L51.0911 15.769H51.7924V13.6337H49.7652L45.9239 24.6384ZM47.9891 21.9692H54.2466L53.6826 20.2457H48.5531L47.9891 21.9692ZM53.8883 24.6384H56.3045L52.4709 13.6337H51.1369V15.769L53.8883 24.6384ZM57.2418 27.3076H59.4673V23.2428H59.5131C59.6657 23.5682 59.8636 23.8478 60.1078 24.0817C60.3515 24.3104 60.6387 24.4884 60.969 24.6155C61.2993 24.7426 61.6576 24.8062 62.0438 24.8062C62.7296 24.8062 63.3188 24.6359 63.8117 24.2952C64.3046 23.9545 64.6831 23.4665 64.9474 22.831C65.2167 22.1954 65.3514 21.4353 65.3514 20.5507V20.5431C65.3514 19.6584 65.2167 18.8983 64.9474 18.2628C64.678 17.6273 64.2945 17.1418 63.7966 16.8062C63.2986 16.4656 62.704 16.2952 62.0131 16.2952C61.6269 16.2952 61.2714 16.3588 60.9461 16.4859C60.6259 16.613 60.3441 16.796 60.1 17.035C59.8613 17.274 59.668 17.5587 59.5209 17.8891H59.4673V16.463H57.2418V27.3076ZM61.2815 22.9606C60.9205 22.9606 60.603 22.864 60.3286 22.6708C60.0592 22.4725 59.8462 22.1929 59.6886 21.8319C59.536 21.4709 59.46 21.0464 59.46 20.5583V20.5507C59.46 20.0524 59.536 19.6254 59.6886 19.2695C59.8411 18.9085 60.0542 18.6314 60.3286 18.4382C60.603 18.2399 60.9205 18.1408 61.2815 18.1408C61.6471 18.1408 61.965 18.2374 62.2339 18.4306C62.5084 18.6187 62.7195 18.8932 62.8666 19.2542C63.0141 19.6152 63.0878 20.0448 63.0878 20.5431V20.5507C63.0878 21.0439 63.0141 21.4709 62.8666 21.8319C62.7195 22.1929 62.5111 22.4725 62.2417 22.6708C61.9723 22.864 61.6525 22.9606 61.2815 22.9606ZM66.51 27.3076H68.7355V23.2428H68.7809C68.9335 23.5682 69.1318 23.8478 69.3756 24.0817C69.6197 24.3104 69.9065 24.4884 70.2368 24.6155C70.5671 24.7426 70.9254 24.8062 71.3116 24.8062C71.9974 24.8062 72.587 24.6359 73.0799 24.2952C73.5728 23.9545 73.9512 23.4665 74.2156 22.831C74.4845 22.1954 74.6192 21.4353 74.6192 20.5507V20.5431C74.6192 19.6584 74.4845 18.8983 74.2156 18.2628C73.9462 17.6273 73.5623 17.1418 73.0644 16.8062C72.5664 16.4656 71.9722 16.2952 71.2809 16.2952C70.8947 16.2952 70.5392 16.3588 70.2139 16.4859C69.8937 16.613 69.6119 16.796 69.3682 17.035C69.1291 17.274 68.9362 17.5587 68.7887 17.8891H68.7355V16.463H66.51V27.3076ZM70.5493 22.9606C70.1887 22.9606 69.8712 22.864 69.5968 22.6708C69.3274 22.4725 69.114 22.1929 68.9564 21.8319C68.8038 21.4709 68.7278 21.0464 68.7278 20.5583V20.5507C68.7278 20.0524 68.8038 19.6254 68.9564 19.2695C69.1089 18.9085 69.3224 18.6314 69.5968 18.4382C69.8712 18.2399 70.1887 18.1408 70.5493 18.1408C70.9153 18.1408 71.2328 18.2374 71.5021 18.4306C71.7765 18.6187 71.9873 18.8932 72.1348 19.2542C72.2819 19.6152 72.3556 20.0448 72.3556 20.5431V20.5507C72.3556 21.0439 72.2819 21.4709 72.1348 21.8319C71.9873 22.1929 71.7789 22.4725 71.5095 22.6708C71.2405 22.864 70.9203 22.9606 70.5493 22.9606ZM83.0793 24.829C84.0042 24.829 84.7968 24.6892 85.4574 24.4096C86.123 24.1249 86.6311 23.7258 86.9816 23.2123C87.3375 22.6937 87.5153 22.081 87.5153 21.3743V21.3667C87.5153 20.7922 87.3957 20.3016 87.157 19.8948C86.9234 19.483 86.5601 19.1424 86.0671 18.8729C85.5742 18.6035 84.9443 18.3925 84.1769 18.2399L83.0106 18.0035C82.3807 17.8764 81.9184 17.7061 81.6238 17.4926C81.3288 17.279 81.1817 16.9994 81.1817 16.6537V16.6461C81.1817 16.3817 81.2551 16.1503 81.4026 15.9521C81.5551 15.7538 81.7736 15.5987 82.0581 15.4869C82.3426 15.3699 82.6807 15.3115 83.0719 15.3115C83.4527 15.3115 83.788 15.3674 84.078 15.4792C84.3726 15.5911 84.6089 15.7513 84.7867 15.9597C84.9645 16.163 85.0735 16.4097 85.1143 16.6995L85.122 16.791H87.294L87.2866 16.6461C87.2509 16.0054 87.0604 15.4436 86.7149 14.9607C86.3695 14.4777 85.8867 14.104 85.2668 13.8396C84.652 13.5752 83.9204 13.443 83.0719 13.443C82.2588 13.443 81.5373 13.5829 80.9073 13.8625C80.277 14.137 79.7817 14.526 79.4212 15.0293C79.0602 15.5275 78.8797 16.1122 78.8797 16.7833V16.791C78.8797 17.6197 79.1541 18.2933 79.703 18.8119C80.2518 19.3305 81.0672 19.6991 82.1493 19.9177L83.3079 20.1465C83.9941 20.2889 84.4816 20.4668 84.7716 20.6804C85.0661 20.8888 85.2132 21.1786 85.2132 21.5497V21.5574C85.2132 21.837 85.1271 22.0836 84.9544 22.2971C84.7867 22.5056 84.548 22.6683 84.2379 22.7852C83.9332 22.8971 83.5672 22.953 83.1402 22.953C82.7238 22.953 82.3504 22.8971 82.0201 22.7852C81.6898 22.6683 81.4204 22.5081 81.212 22.3047C81.009 22.0963 80.8817 21.8497 80.8309 21.565L80.8157 21.4811H78.6437L78.6511 21.6031C78.6969 22.2793 78.9053 22.8589 79.276 23.3419C79.6471 23.8198 80.1551 24.1884 80.8006 24.4477C81.4507 24.7019 82.2107 24.829 83.0793 24.829ZM91.9815 24.8062C92.2151 24.8062 92.4208 24.796 92.599 24.7757C92.7818 24.7604 92.9343 24.7426 93.0562 24.7223V23.0902C92.9902 23.1004 92.9188 23.1106 92.8427 23.1208C92.7667 23.1259 92.6774 23.1284 92.5761 23.1284C92.2407 23.1284 91.9865 23.0547 91.8138 22.9072C91.6461 22.7547 91.5623 22.4878 91.5623 22.1065V18.1408H93.0562V16.463H91.5623V14.465H89.3139V16.463H88.1782V18.1408H89.3139V22.3505C89.3139 23.225 89.5324 23.8529 89.9694 24.2342C90.4064 24.6155 91.0771 24.8062 91.9815 24.8062ZM97.9265 24.8062C98.7493 24.8062 99.4635 24.6384 100.068 24.3028C100.673 23.9622 101.14 23.4741 101.471 22.8386C101.806 22.2031 101.974 21.4404 101.974 20.5507V20.5355C101.974 19.6508 101.806 18.8933 101.471 18.2628C101.135 17.6273 100.662 17.1418 100.053 16.8062C99.4483 16.4656 98.7369 16.2952 97.9187 16.2952C97.1056 16.2952 96.3969 16.4656 95.7922 16.8062C95.1878 17.1468 94.7178 17.6349 94.3825 18.2705C94.0471 18.9009 93.8794 19.6559 93.8794 20.5355V20.5507C93.8794 21.4353 94.0444 22.1954 94.3747 22.831C94.705 23.4665 95.1723 23.9545 95.777 24.2952C96.3817 24.6359 97.0982 24.8062 97.9265 24.8062ZM97.9339 23.0598C97.5682 23.0598 97.2507 22.9631 96.9814 22.77C96.712 22.5717 96.5036 22.2869 96.3565 21.9158C96.214 21.5396 96.143 21.0845 96.143 20.5507V20.5355C96.143 20.0067 96.2168 19.5567 96.3639 19.1856C96.5114 18.8145 96.7171 18.5323 96.9814 18.3391C97.2507 18.1408 97.5632 18.0416 97.9187 18.0416C98.2797 18.0416 98.5945 18.1408 98.8638 18.3391C99.1332 18.5323 99.3416 18.8145 99.4887 19.1856C99.6362 19.5567 99.7099 20.0067 99.7099 20.5355V20.5507C99.7099 21.0845 99.6362 21.5396 99.4887 21.9158C99.3467 22.2869 99.1409 22.5717 98.8716 22.77C98.6073 22.9631 98.2948 23.0598 97.9339 23.0598ZM103.124 24.6384H105.35V20.0626C105.35 19.6661 105.419 19.3305 105.556 19.0559C105.693 18.7814 105.891 18.573 106.15 18.4306C106.409 18.2883 106.722 18.2171 107.088 18.2171C107.25 18.2171 107.403 18.2298 107.545 18.2552C107.687 18.2755 107.804 18.3035 107.896 18.3391V16.3791C107.814 16.3537 107.717 16.3334 107.606 16.3181C107.494 16.3029 107.377 16.2952 107.255 16.2952C106.778 16.2952 106.379 16.4351 106.059 16.7147C105.738 16.9943 105.518 17.3858 105.396 17.8891H105.35V16.463H103.124V24.6384ZM112.27 24.8062C112.855 24.8062 113.363 24.7299 113.795 24.5774C114.231 24.4249 114.6 24.2215 114.9 23.9673C115.205 23.7131 115.446 23.4334 115.624 23.1284C115.802 22.8233 115.921 22.5208 115.982 22.2208L116.005 22.137H113.963L113.947 22.1827C113.896 22.3353 113.8 22.4852 113.657 22.6327C113.515 22.7801 113.332 22.9021 113.109 22.9987C112.885 23.0953 112.621 23.1436 112.316 23.1436C111.93 23.1436 111.597 23.0598 111.318 22.892C111.038 22.7191 110.822 22.4725 110.67 22.1522C110.523 21.8319 110.449 21.4455 110.449 20.993V20.1312C110.449 19.6635 110.523 19.2695 110.67 18.9492C110.822 18.6238 111.031 18.3772 111.295 18.2095C111.564 18.0416 111.872 17.9578 112.217 17.9578C112.563 17.9578 112.865 18.0391 113.124 18.2018C113.388 18.3645 113.594 18.6085 113.741 18.934C113.889 19.2542 113.963 19.6534 113.963 20.1312V20.9854L115.022 19.6737H109.344V21.0769H116.074V20.3906C116.074 19.5669 115.914 18.8475 115.593 18.2323C115.278 17.6171 114.829 17.1418 114.244 16.8062C113.665 16.4656 112.977 16.2952 112.179 16.2952C111.381 16.2952 110.687 16.4707 110.098 16.8215C109.514 17.1672 109.059 17.6603 108.734 18.301C108.414 18.9365 108.254 19.6889 108.254 20.5583V20.5659C108.254 21.4353 108.414 22.1878 108.734 22.8233C109.059 23.4588 109.522 23.9495 110.121 24.2952C110.72 24.6359 111.437 24.8062 112.27 24.8062Z" fill="url(#paint0_linear_2_17205)"/>
<path d="M34.5776 42.0133H35.9597L38.3426 34.8706H38.7175V33.4456H37.6516L34.5776 42.0133ZM36.0708 39.6977H40.65L40.2693 38.6291H36.4515L36.0708 39.6977ZM40.7554 42.0133H42.1431L39.075 33.4456H38.3777V34.8706L40.7554 42.0133ZM42.9453 44.0972H44.2162V40.9623H44.2455C44.3705 41.204 44.5283 41.4136 44.7195 41.5917C44.9112 41.7658 45.1317 41.9006 45.3812 41.9952C45.6351 42.0904 45.9063 42.1382 46.1954 42.1382C46.7147 42.1382 47.1656 42.0052 47.548 41.7401C47.9304 41.475 48.2275 41.1007 48.4382 40.6179C48.653 40.1309 48.7602 39.5552 48.7602 38.8902V38.8843C48.7602 38.2193 48.653 37.6435 48.4382 37.1566C48.2275 36.6697 47.9287 36.2955 47.5423 36.0344C47.1558 35.7692 46.7009 35.6366 46.1776 35.6366C45.885 35.6366 45.6155 35.686 45.3696 35.785C45.1237 35.88 44.9049 36.0166 44.7137 36.1945C44.5265 36.3689 44.3705 36.5786 44.2455 36.8239H44.2162V35.7612H42.9453V44.0972ZM45.8441 41.0277C45.5199 41.0277 45.2349 40.9407 44.989 40.7667C44.7471 40.5881 44.5559 40.3388 44.4154 40.0182C44.2784 39.6977 44.2104 39.3216 44.2104 38.8902V38.8843C44.2104 38.4488 44.2784 38.0709 44.4154 37.7504C44.5559 37.4298 44.7489 37.1823 44.9948 37.0083C45.2407 36.8302 45.5239 36.7409 45.8441 36.7409C46.1758 36.7409 46.4626 36.8279 46.7049 37.002C46.9468 37.1724 47.1323 37.4176 47.2612 37.7382C47.3937 38.0588 47.46 38.4411 47.46 38.8843V38.8902C47.46 39.3298 47.3937 39.7094 47.2612 40.0304C47.1323 40.3469 46.9468 40.5922 46.7049 40.7667C46.4626 40.9407 46.1758 41.0277 45.8441 41.0277ZM49.7616 44.0972H51.0324V40.9623H51.0613C51.1863 41.204 51.3446 41.4136 51.5358 41.5917C51.727 41.7658 51.9475 41.9006 52.1974 41.9952C52.4513 42.0904 52.7226 42.1382 53.0116 42.1382C53.5305 42.1382 53.9814 42.0052 54.3643 41.7401C54.7467 41.475 55.0433 41.1007 55.2541 40.6179C55.4688 40.1309 55.5764 39.5552 55.5764 38.8902V38.8843C55.5764 38.2193 55.4688 37.6435 55.2541 37.1566C55.0433 36.6697 54.7449 36.2955 54.358 36.0344C53.9716 35.7692 53.5172 35.6366 52.9938 35.6366C52.7012 35.6366 52.4318 35.686 52.1859 35.785C51.94 35.88 51.7212 36.0166 51.53 36.1945C51.3423 36.3689 51.1863 36.5786 51.0613 36.8239H51.0324V35.7612H49.7616V44.0972ZM52.6599 41.0277C52.3362 41.0277 52.0511 40.9407 51.8052 40.7667C51.5629 40.5881 51.3717 40.3388 51.2312 40.0182C51.0947 39.6977 51.0262 39.3216 51.0262 38.8902V38.8843C51.0262 38.4488 51.0947 38.0709 51.2312 37.7504C51.3717 37.4298 51.5651 37.1823 51.811 37.0083C52.0569 36.8302 52.3402 36.7409 52.6599 36.7409C52.992 36.7409 53.2789 36.8279 53.5208 37.002C53.7631 37.1724 53.9485 37.4176 54.077 37.7382C54.21 38.0588 54.2762 38.4411 54.2762 38.8843V38.8902C54.2762 39.3298 54.21 39.7094 54.077 40.0304C53.9485 40.3469 53.7631 40.5922 53.5208 40.7667C53.2789 40.9407 52.992 41.0277 52.6599 41.0277ZM61.7012 42.1382C62.2908 42.1382 62.804 42.0074 63.2415 41.7459C63.6826 41.4808 64.0242 41.1071 64.266 40.6237C64.5084 40.1372 64.6293 39.5592 64.6293 38.8902V38.8784C64.6293 38.2053 64.5062 37.6278 64.2603 37.1444C64.0184 36.6616 63.6769 36.2896 63.2358 36.0284C62.7982 35.7672 62.2851 35.6366 61.6954 35.6366C61.1138 35.6366 60.6025 35.7672 60.1614 36.0284C59.7243 36.2896 59.3823 36.6638 59.1364 37.1507C58.8945 37.6336 58.7736 38.2094 58.7736 38.8784V38.8902C58.7736 39.5552 58.8945 40.1309 59.1364 40.6179C59.3787 41.1048 59.718 41.4808 60.1556 41.7459C60.5967 42.0074 61.112 42.1382 61.7012 42.1382ZM61.707 41.0575C61.3753 41.0575 61.0867 40.9722 60.8404 40.8023C60.5945 40.6318 60.4033 40.3843 60.2667 40.0597C60.1338 39.7355 60.0675 39.3455 60.0675 38.8902V38.8784C60.0675 38.419 60.136 38.0295 60.2725 37.7089C60.409 37.3879 60.5985 37.1426 60.8404 36.9726C61.0867 36.7982 61.3713 36.7111 61.6954 36.7111C62.0272 36.7111 62.3162 36.7964 62.5621 36.9663C62.808 37.1368 62.9974 37.3843 63.1304 37.7089C63.2669 38.0295 63.3349 38.419 63.3349 38.8784V38.8902C63.3349 39.3455 63.2669 39.7355 63.1304 40.0597C62.9974 40.3843 62.8102 40.6318 62.5679 40.8023C62.326 40.9722 62.0392 41.0575 61.707 41.0575ZM66.0051 42.0133H67.276V36.7824H68.5175V35.7612H67.2586V35.12C67.2586 34.8389 67.3267 34.6292 67.4636 34.4906C67.6041 34.3521 67.8167 34.2828 68.1017 34.2828C68.18 34.2828 68.256 34.2848 68.3303 34.2888C68.4081 34.2927 68.4783 34.2987 68.541 34.3066V33.3566C68.4552 33.3447 68.3476 33.3348 68.2187 33.3269C68.0902 33.315 67.9594 33.3091 67.8265 33.3091C67.4089 33.3091 67.0652 33.3744 66.7957 33.505C66.5303 33.6317 66.3315 33.8276 66.1986 34.0928C66.0696 34.3541 66.0051 34.6866 66.0051 35.0903V35.7612H65.1447V36.7824H66.0051V42.0133ZM74.1798 42.1319C74.3088 42.1319 74.4297 42.126 74.5431 42.1143C74.6561 42.1026 74.7521 42.0904 74.8299 42.0787V41.0872C74.7792 41.0908 74.7245 41.0971 74.6658 41.1048C74.6111 41.1089 74.5489 41.1107 74.4786 41.1107C74.2092 41.1107 74.0064 41.0516 73.8694 40.9326C73.7329 40.814 73.6645 40.5962 73.6645 40.2797V36.7824H74.8299V35.7612H73.6645V34.1344H72.3647V35.7612H71.4745V36.7824H72.3647V40.3627C72.3647 40.984 72.5132 41.4353 72.8098 41.7166C73.1104 41.9934 73.5671 42.1319 74.1798 42.1319ZM75.9367 42.0133H77.2075V38.3857C77.2075 38.061 77.268 37.7761 77.389 37.5304C77.5099 37.2851 77.6798 37.093 77.8985 36.9546C78.1169 36.8121 78.3708 36.7409 78.6598 36.7409C79.1045 36.7409 79.4482 36.8852 79.6901 37.1742C79.936 37.4632 80.0592 37.8672 80.0592 38.3857V42.0133H81.33V38.1363C81.33 37.6336 81.2402 37.1963 81.0605 36.8239C80.8809 36.4478 80.627 36.157 80.2993 35.9512C79.9711 35.7414 79.5869 35.6366 79.1458 35.6366C78.6852 35.6366 78.2925 35.7375 77.9688 35.9394C77.6446 36.1372 77.4027 36.4181 77.2427 36.7824H77.2075V33.4278H75.9367V42.0133ZM85.2239 42.1382C85.5988 42.1382 85.9385 42.0863 86.2427 41.9835C86.5472 41.8807 86.8127 41.7401 87.039 41.562C87.2658 41.3798 87.4472 41.176 87.5838 40.9506C87.7243 40.7247 87.8199 40.4894 87.8706 40.2441L87.8826 40.1846H86.6762L86.6584 40.2319C86.6077 40.3866 86.5179 40.529 86.3894 40.6593C86.2644 40.786 86.1061 40.8893 85.9149 40.9682C85.7237 41.0435 85.5032 41.0809 85.2533 41.0809C84.9096 41.0809 84.613 41.0061 84.3631 40.8555C84.1132 40.7013 83.9202 40.4813 83.7832 40.1963C83.6507 39.9073 83.5845 39.5592 83.5845 39.1517V38.6526C83.5845 38.2292 83.6525 37.8708 83.7894 37.5782C83.926 37.2851 84.1132 37.0633 84.3515 36.9131C84.5894 36.7625 84.8606 36.6873 85.1652 36.6873C85.4698 36.6873 85.7371 36.7607 85.9674 36.9073C86.2017 37.0497 86.3832 37.2675 86.5121 37.5601C86.6451 37.8491 86.7113 38.2134 86.7113 38.6526V39.1517L87.3379 38.3022H82.9401V39.2166H87.9528V38.7774C87.9528 38.1521 87.8394 37.6039 87.6131 37.1327C87.3868 36.6579 87.0644 36.2896 86.6469 36.0284C86.2293 35.7672 85.7335 35.6366 85.1595 35.6366C84.5818 35.6366 84.0803 35.7731 83.6547 36.0462C83.2292 36.3153 82.8992 36.6954 82.6649 37.1864C82.4306 37.6769 82.3136 38.249 82.3136 38.9019V38.9082C82.3136 39.5651 82.4288 40.135 82.6591 40.6179C82.8935 41.1007 83.2269 41.475 83.6605 41.7401C84.0976 42.0052 84.6187 42.1382 85.2239 42.1382ZM91.5715 42.0133H94.5579C95.3974 42.0133 96.1155 41.8451 96.7127 41.5088C97.3103 41.1684 97.767 40.6774 98.0831 40.0363C98.3993 39.3911 98.5576 38.6169 98.5576 37.7148V37.7026C98.5576 36.8004 98.3975 36.0324 98.0774 35.3991C97.7612 34.7657 97.3046 34.2828 96.7069 33.9503C96.1137 33.6139 95.3974 33.4456 94.5579 33.4456H91.5715V42.0133ZM92.889 40.8613V34.5975H94.4351C95.0283 34.5975 95.5321 34.7183 95.9457 34.9597C96.3596 35.1972 96.674 35.5495 96.8888 36.0166C97.1071 36.4799 97.2165 37.0457 97.2165 37.7148V37.7265C97.2165 38.3996 97.1093 38.9695 96.8946 39.4366C96.6798 39.9037 96.3654 40.2576 95.9514 40.4993C95.5379 40.7405 95.0323 40.8613 94.4351 40.8613H92.889ZM101.485 42.126C101.759 42.126 102.014 42.0827 102.252 41.9952C102.495 41.9046 102.711 41.7779 102.902 41.6156C103.094 41.4493 103.248 41.2554 103.365 41.0336H103.4V42.0133H104.671V37.7026C104.671 37.2833 104.569 36.919 104.366 36.6102C104.167 36.3013 103.882 36.062 103.512 35.8918C103.144 35.7216 102.709 35.6366 102.206 35.6366C101.702 35.6366 101.267 35.7197 100.9 35.8859C100.533 36.0522 100.246 36.2779 100.039 36.5628C99.832 36.8478 99.7111 37.1706 99.6759 37.5304L99.6702 37.6016H100.87L100.882 37.5484C100.937 37.295 101.074 37.0912 101.292 36.937C101.515 36.7783 101.807 36.6994 102.171 36.6994C102.565 36.6994 102.867 36.7982 103.078 36.9961C103.293 37.19 103.4 37.4591 103.4 37.8036V39.6738C103.4 39.9429 103.33 40.1864 103.189 40.4042C103.053 40.6179 102.866 40.786 102.627 40.9091C102.393 41.0318 102.127 41.0931 101.831 41.0931C101.491 41.0931 101.218 41.0137 101.011 40.8555C100.808 40.6972 100.707 40.4795 100.707 40.2022V40.1905C100.707 39.9253 100.808 39.7134 101.011 39.5552C101.218 39.3929 101.511 39.3 101.889 39.2761L104.05 39.1395V38.2373L101.72 38.3798C101.235 38.4073 100.822 38.4984 100.478 38.6526C100.134 38.8072 99.8729 39.0169 99.6933 39.282C99.5141 39.5471 99.4243 39.8618 99.4243 40.2261V40.2378C99.4243 40.6102 99.5101 40.9384 99.6817 41.2238C99.8574 41.5088 100.099 41.7301 100.408 41.8884C100.716 42.0471 101.075 42.126 101.485 42.126ZM106.621 44.1093C107.023 44.1093 107.369 44.048 107.657 43.9249C107.946 43.8064 108.192 43.6143 108.395 43.3492C108.602 43.0841 108.784 42.7338 108.94 42.2982L111.235 35.7612H109.894L108.254 41.1404L108.483 40.8437H108.161L108.389 41.1404L106.75 35.7612H105.373L107.622 42.0191L107.517 42.3163C107.411 42.617 107.271 42.8208 107.095 42.9276C106.92 43.0345 106.681 43.0881 106.381 43.0881C106.295 43.0881 106.215 43.0818 106.14 43.0701C106.07 43.0624 106.01 43.0543 105.959 43.0462V44.0498C106.041 44.0656 106.14 44.0796 106.258 44.0913C106.379 44.103 106.5 44.1093 106.621 44.1093Z" fill="url(#paint1_linear_2_17205)"/>
<path d="M18.3734 52.2506C17.5946 52.183 16.7734 52.2506 15.9099 52.4541C15.0464 52.6743 14.2845 52.9877 13.6242 53.3943C13.0316 53.7501 12.9808 54.1567 13.4718 54.6142C14.0644 55.1731 14.7755 55.6391 15.6052 56.0119C16.4517 56.4015 17.2644 56.6217 18.0433 56.6725C18.856 56.791 19.7025 56.7234 20.583 56.469C21.4804 56.2321 22.2507 55.8679 22.8942 55.3766C23.3344 55.0208 23.3513 54.648 22.945 54.2585C22.3693 53.6992 21.6581 53.2332 20.8116 52.8607C19.9819 52.505 19.1692 52.3015 18.3734 52.2506ZM23.7322 43.5598C23.292 44.2033 22.9534 44.9657 22.7163 45.8469C22.4793 46.711 22.3777 47.5324 22.4116 48.3118C22.4624 49.125 22.6656 49.955 23.0211 50.8024C23.3767 51.6494 23.8084 52.3524 24.3164 52.9116C24.6889 53.3349 25.0614 53.3264 25.4338 52.886C25.9588 52.2762 26.3566 51.5224 26.6275 50.6245C26.8984 49.7433 26.9916 48.8963 26.9069 48.0831C26.8561 47.2869 26.6445 46.4737 26.272 45.6434C25.9164 44.7963 25.4677 44.0763 24.9259 43.4833C24.4857 42.992 24.0878 43.0176 23.7322 43.5598ZM11.1861 45.3132C10.441 45.0589 9.61141 44.9233 8.69713 44.9066C7.79973 44.8728 6.97857 44.9827 6.23359 45.2367C5.62407 45.4231 5.48861 45.8045 5.82725 46.3805C6.23359 47.0753 6.79234 47.7102 7.50344 48.2866C8.21457 48.8625 8.95109 49.2858 9.71299 49.5569C10.458 49.8618 11.2876 50.0059 12.2019 49.9892C13.1162 49.9892 13.9543 49.8194 14.7163 49.4808C15.2411 49.2777 15.3596 48.9301 15.0718 48.4388C14.6485 47.7444 14.0813 47.1176 13.3702 46.5583C12.6591 45.9824 11.931 45.5672 11.1861 45.3132ZM18.5512 38.2993C17.9586 38.8075 17.4338 39.4513 16.9766 40.2307C16.5364 41.0098 16.2401 41.7721 16.0877 42.5178C15.9184 43.3139 15.893 44.1695 16.0115 45.0845C16.13 45.9824 16.3671 46.7785 16.7226 47.4733C16.9597 47.9813 17.3237 48.066 17.8147 47.7273C18.4581 47.2698 19.0253 46.6515 19.5163 45.8721C20.0073 45.093 20.3121 44.2883 20.4306 43.458C20.5999 42.6786 20.6169 41.8401 20.4814 40.9422C20.346 40.0443 20.092 39.231 19.7195 38.5026C19.4317 37.8927 19.0422 37.8249 18.5512 38.2993ZM0.239873 35.4022C0.341447 36.1985 0.595401 37.0117 1.00177 37.8418C1.42507 38.6551 1.91606 39.3413 2.47481 39.9002C3.03356 40.4761 3.7362 40.9507 4.58279 41.3232C5.42934 41.6793 6.26747 41.8572 7.0971 41.8572C7.65582 41.891 7.90135 41.6113 7.83362 41.0183C7.71508 40.2051 7.44421 39.4004 7.02091 38.6042C6.59762 37.808 6.10659 37.1472 5.54788 36.6221C4.9722 36.0799 4.26953 35.6225 3.4399 35.2498C2.62719 34.8601 1.83987 34.6229 1.07796 34.5382C0.43456 34.4874 0.155183 34.7754 0.239873 35.4022ZM15.1226 33.1659C14.3945 33.4031 13.658 33.7928 12.9131 34.3349C12.185 34.8601 11.6009 35.4361 11.1606 36.063C10.6866 36.6898 10.3225 37.4437 10.0686 38.3247C9.8146 39.1887 9.70453 40.0272 9.73841 40.8404C9.78918 41.3997 10.094 41.6284 10.6527 41.5267C11.4654 41.3573 12.2527 41.0183 13.0146 40.5103C13.7766 39.9849 14.3692 39.3751 14.7925 38.6805C15.2496 38.0028 15.5967 37.2235 15.8337 36.3425C16.0877 35.4615 16.1808 34.6314 16.1131 33.8521C16.0962 33.1744 15.766 32.9457 15.1226 33.1659ZM10.7035 27.2194C10.077 27.7277 9.52676 28.3799 9.05266 29.1762C8.5786 29.9555 8.27384 30.7348 8.13838 31.5141C8.03681 32.0563 8.25691 32.3443 8.79871 32.3781C9.62834 32.4121 10.4749 32.2765 11.3384 31.9716C12.2189 31.6666 12.9554 31.2431 13.548 30.7009C14.1575 30.1757 14.6993 29.5235 15.1734 28.7442C15.6475 27.9479 15.9607 27.1516 16.1131 26.3554C16.2147 25.7286 15.9438 25.4236 15.3004 25.4405C14.5046 25.4913 13.6834 25.6777 12.8369 25.9996C11.9903 26.3215 11.2792 26.7281 10.7035 27.2194ZM0.290641 23.8141C0.189067 24.5934 0.231373 25.4321 0.417637 26.33C0.620824 27.2279 0.934046 28.0241 1.35734 28.7187C1.76368 29.4303 2.32243 30.0741 3.03356 30.6501C3.76158 31.2261 4.52352 31.6073 5.31931 31.7937C5.8611 31.9631 6.17432 31.7598 6.25897 31.1838C6.34366 30.4044 6.28439 29.5743 6.08121 28.6933C5.87802 27.8124 5.5648 27.0246 5.1415 26.33C4.71821 25.6523 4.15949 25.0339 3.46528 24.4749C2.77111 23.8988 2.05997 23.4668 1.33192 23.1788C0.722398 22.9247 0.375292 23.1364 0.290641 23.8141ZM12.1257 18.6046C11.3638 18.8587 10.6273 19.2738 9.91617 19.8498C9.20508 20.4088 8.64633 21.0357 8.23995 21.7303C7.93519 22.2047 8.04527 22.5605 8.57014 22.7976C9.31511 23.1364 10.1447 23.3059 11.0591 23.3059C11.9903 23.3059 12.8369 23.1534 13.5988 22.8485C14.3776 22.5435 15.1226 22.103 15.8337 21.527C16.5448 20.934 17.0951 20.2903 17.4845 19.5956C17.8232 19.0705 17.6793 18.7062 17.0528 18.5029C16.2909 18.2827 15.4612 18.181 14.5639 18.198C13.6665 18.198 12.8538 18.3335 12.1257 18.6046ZM3.51609 11.8448C3.16052 12.5564 2.91503 13.3696 2.77957 14.2844C2.66103 15.1823 2.66953 16.021 2.80495 16.8003C2.97429 17.6135 3.29598 18.4097 3.77008 19.1891C4.26107 19.9684 4.8452 20.5868 5.52245 21.0442C5.96267 21.366 6.31824 21.2729 6.58915 20.7646C6.94472 20.07 7.18175 19.2738 7.30029 18.3759C7.41878 17.4779 7.3934 16.6393 7.2241 15.86C7.05476 15.0807 6.74153 14.3014 6.28439 13.5221C5.82725 12.7427 5.31084 12.0905 4.73517 11.5653C4.24414 11.1587 3.83777 11.2519 3.51609 11.8448ZM16.7988 11.2095C16.02 11.3451 15.2327 11.65 14.4369 12.1244C13.658 12.5987 13.0231 13.1494 12.5321 13.7762C12.1935 14.1997 12.2527 14.564 12.7099 14.8689C13.421 15.2925 14.2252 15.572 15.1226 15.7075C16.0369 15.8431 16.8919 15.8007 17.6877 15.5805C18.4835 15.3941 19.2623 15.0638 20.0243 14.5894C20.8031 14.115 21.4465 13.5813 21.9544 12.9884C22.3777 12.4801 22.2931 12.0905 21.7005 11.8194C21.0063 11.4806 20.2105 11.2603 19.3131 11.1587C18.4158 11.0401 17.5777 11.057 16.7988 11.2095ZM9.23046 3.28081C8.77332 3.94154 8.41776 4.72086 8.16376 5.61876C7.90981 6.49973 7.80824 7.32986 7.859 8.10919C7.87593 8.90546 8.07065 9.72712 8.44314 10.5742C8.81563 11.4213 9.29819 12.1329 9.89079 12.7089C10.331 13.0985 10.7035 13.0646 11.0083 12.6072C11.4654 11.9295 11.8125 11.1502 12.0495 10.2692C12.3035 9.38827 12.3966 8.55814 12.3289 7.77885C12.2781 7.01645 12.075 6.22018 11.7194 5.39005C11.3807 4.54299 10.9575 3.82294 10.4495 3.22999C10.0262 2.73868 9.61987 2.75562 9.23046 3.28081ZM22.564 0.714145C21.7851 0.832741 20.9894 1.09533 20.1767 1.50194C19.3809 1.90854 18.7036 2.39138 18.1449 2.95045C17.5692 3.49258 17.0867 4.17874 16.6973 5.00887C16.3078 5.839 16.0792 6.64373 16.0115 7.42307C15.9607 7.98212 16.2062 8.2532 16.748 8.23626C17.5607 8.20236 18.3819 7.99058 19.2116 7.60094C20.0581 7.21129 20.7608 6.7115 21.3195 6.10161C21.8613 5.54252 22.3269 4.84793 22.7163 4.01778C23.1058 3.18763 23.3513 2.37443 23.4529 1.57817C23.5206 0.917447 23.2243 0.629439 22.564 0.714145Z" fill="url(#paint2_linear_2_17205)"/>
<path d="M126.378 52.2506C127.157 52.183 127.977 52.2506 128.841 52.4541C129.705 52.6743 130.467 52.9877 131.127 53.3943C131.719 53.7501 131.77 54.1567 131.279 54.6142C130.687 55.1731 129.976 55.6391 129.146 56.0119C128.299 56.4015 127.487 56.6217 126.708 56.6725C125.895 56.791 125.048 56.7234 124.168 56.469C123.271 56.2321 122.5 55.8679 121.857 55.3766C121.417 55.0208 121.4 54.648 121.806 54.2585C122.382 53.6992 123.093 53.2332 123.939 52.8607C124.769 52.505 125.582 52.3015 126.378 52.2506ZM121.019 43.5598C121.459 44.2033 121.798 44.9657 122.035 45.8469C122.272 46.711 122.373 47.5324 122.34 48.3118C122.289 49.125 122.085 49.955 121.73 50.8024C121.374 51.6494 120.943 52.3524 120.435 52.9116C120.062 53.3349 119.69 53.3264 119.317 52.886C118.792 52.2762 118.395 51.5224 118.124 50.6245C117.853 49.7433 117.76 48.8963 117.844 48.0831C117.895 47.2869 118.107 46.4737 118.479 45.6434C118.835 44.7963 119.283 44.0763 119.825 43.4833C120.265 42.992 120.663 43.0176 121.019 43.5598ZM133.565 45.3132C134.31 45.0589 135.14 44.9233 136.054 44.9066C136.951 44.8728 137.772 44.9827 138.518 45.2367C139.127 45.4231 139.262 45.8045 138.924 46.3805C138.518 47.0753 137.959 47.7102 137.248 48.2866C136.537 48.8625 135.8 49.2858 135.038 49.5569C134.293 49.8618 133.463 50.0059 132.549 49.9892C131.635 49.9892 130.796 49.8194 130.035 49.4808C129.51 49.2777 129.391 48.9301 129.679 48.4388C130.103 47.7444 130.67 47.1176 131.381 46.5583C132.092 45.9824 132.82 45.5672 133.565 45.3132ZM126.2 38.2993C126.793 38.8075 127.317 39.4513 127.774 40.2307C128.215 41.0098 128.511 41.7721 128.663 42.5178C128.833 43.3139 128.858 44.1695 128.739 45.0845C128.621 45.9824 128.384 46.7785 128.028 47.4733C127.791 47.9813 127.427 48.066 126.936 47.7273C126.293 47.2698 125.726 46.6515 125.235 45.8721C124.744 45.093 124.439 44.2883 124.321 43.458C124.151 42.6786 124.134 41.8401 124.27 40.9422C124.405 40.0443 124.659 39.231 125.032 38.5026C125.319 37.8927 125.709 37.8249 126.2 38.2993ZM144.511 35.4022C144.409 36.1985 144.156 37.0117 143.749 37.8418C143.326 38.6551 142.835 39.3413 142.276 39.9002C141.717 40.4761 141.015 40.9507 140.168 41.3232C139.322 41.6793 138.483 41.8572 137.654 41.8572C137.095 41.891 136.85 41.6113 136.917 41.0183C137.036 40.2051 137.307 39.4004 137.73 38.6042C138.154 37.808 138.644 37.1472 139.203 36.6221C139.779 36.0799 140.482 35.6225 141.311 35.2498C142.124 34.8601 142.911 34.6229 143.673 34.5382C144.316 34.4874 144.596 34.7754 144.511 35.4022ZM129.628 33.1659C130.356 33.4031 131.093 33.7928 131.838 34.3349C132.566 34.8601 133.15 35.4361 133.59 36.063C134.065 36.6898 134.429 37.4437 134.682 38.3247C134.936 39.1887 135.047 40.0272 135.013 40.8404C134.962 41.3997 134.657 41.6284 134.098 41.5267C133.286 41.3573 132.498 41.0183 131.737 40.5103C130.975 39.9849 130.382 39.3751 129.959 38.6805C129.501 38.0028 129.154 37.2235 128.917 36.3425C128.663 35.4615 128.57 34.6314 128.638 33.8521C128.655 33.1744 128.985 32.9457 129.628 33.1659ZM134.047 27.2194C134.674 27.7277 135.224 28.3799 135.698 29.1762C136.172 29.9555 136.477 30.7348 136.613 31.5141C136.714 32.0563 136.494 32.3443 135.952 32.3781C135.123 32.4121 134.276 32.2765 133.412 31.9716C132.532 31.6666 131.796 31.2431 131.203 30.7009C130.593 30.1757 130.052 29.5235 129.578 28.7442C129.103 27.9479 128.79 27.1516 128.638 26.3554C128.536 25.7286 128.807 25.4236 129.45 25.4405C130.247 25.4913 131.067 25.6777 131.914 25.9996C132.761 26.3215 133.472 26.7281 134.047 27.2194ZM144.46 23.8141C144.562 24.5934 144.52 25.4321 144.333 26.33C144.13 27.2279 143.817 28.0241 143.394 28.7187C142.987 29.4303 142.429 30.0741 141.717 30.6501C140.99 31.2261 140.228 31.6073 139.432 31.7937C138.89 31.9631 138.577 31.7598 138.492 31.1838C138.407 30.4044 138.467 29.5743 138.67 28.6933C138.873 27.8124 139.186 27.0246 139.609 26.33C140.033 25.6523 140.591 25.0339 141.286 24.4749C141.98 23.8988 142.691 23.4668 143.419 23.1788C144.029 22.9247 144.376 23.1364 144.46 23.8141ZM132.625 18.6046C133.387 18.8587 134.124 19.2738 134.835 19.8498C135.546 20.4088 136.105 21.0357 136.511 21.7303C136.816 22.2047 136.706 22.5605 136.181 22.7976C135.436 23.1364 134.606 23.3059 133.692 23.3059C132.761 23.3059 131.914 23.1534 131.152 22.8485C130.373 22.5435 129.628 22.103 128.917 21.527C128.206 20.934 127.656 20.2903 127.266 19.5956C126.928 19.0705 127.072 18.7062 127.698 18.5029C128.46 18.2827 129.29 18.181 130.187 18.198C131.084 18.198 131.897 18.3335 132.625 18.6046ZM141.235 11.8448C141.59 12.5564 141.836 13.3696 141.972 14.2844C142.09 15.1823 142.081 16.021 141.946 16.8003C141.777 17.6135 141.455 18.4097 140.981 19.1891C140.49 19.9684 139.906 20.5868 139.229 21.0442C138.788 21.366 138.433 21.2729 138.162 20.7646C137.806 20.07 137.569 19.2738 137.451 18.3759C137.332 17.4779 137.357 16.6393 137.527 15.86C137.696 15.0807 138.01 14.3014 138.467 13.5221C138.924 12.7427 139.44 12.0905 140.016 11.5653C140.507 11.1587 140.913 11.2519 141.235 11.8448ZM127.952 11.2095C128.731 11.3451 129.518 11.65 130.314 12.1244C131.093 12.5987 131.728 13.1494 132.219 13.7762C132.557 14.1997 132.498 14.564 132.041 14.8689C131.33 15.2925 130.526 15.572 129.628 15.7075C128.714 15.8431 127.859 15.8007 127.063 15.5805C126.267 15.3941 125.489 15.0638 124.727 14.5894C123.948 14.115 123.304 13.5813 122.797 12.9884C122.373 12.4801 122.458 12.0905 123.051 11.8194C123.745 11.4806 124.541 11.2603 125.438 11.1587C126.335 11.0401 127.173 11.057 127.952 11.2095ZM135.52 3.28081C135.978 3.94154 136.333 4.72086 136.587 5.61876C136.841 6.49973 136.943 7.32986 136.892 8.10919C136.875 8.90546 136.68 9.72712 136.308 10.5742C135.935 11.4213 135.453 12.1329 134.86 12.7089C134.42 13.0985 134.047 13.0646 133.743 12.6072C133.286 11.9295 132.939 11.1502 132.701 10.2692C132.448 9.38827 132.354 8.55814 132.422 7.77885C132.473 7.01645 132.676 6.22018 133.032 5.39005C133.37 4.54299 133.794 3.82294 134.301 3.22999C134.725 2.73868 135.131 2.75562 135.52 3.28081ZM122.187 0.714145C122.966 0.832741 123.762 1.09533 124.574 1.50194C125.37 1.90854 126.047 2.39138 126.606 2.95045C127.182 3.49258 127.664 4.17874 128.054 5.00887C128.443 5.839 128.672 6.64373 128.739 7.42307C128.79 7.98212 128.545 8.2532 128.003 8.23626C127.19 8.20236 126.369 7.99058 125.54 7.60094C124.693 7.21129 123.99 6.7115 123.431 6.10161C122.89 5.54252 122.424 4.84793 122.035 4.01778C121.645 3.18763 121.4 2.37443 121.298 1.57817C121.23 0.917447 121.527 0.629439 122.187 0.714145Z" fill="url(#paint3_linear_2_17205)"/>
</g>
<defs>
<linearGradient id="paint0_linear_2_17205" x1="72.8168" y1="11.1704" x2="72.8168" y2="27.3076" gradientUnits="userSpaceOnUse">
<stop stop-color="white"/>
<stop offset="1" stop-color="white" stop-opacity="0.7"/>
</linearGradient>
<linearGradient id="paint1_linear_2_17205" x1="72.9063" y1="33.3091" x2="72.9063" y2="44.1093" gradientUnits="userSpaceOnUse">
<stop stop-color="white"/>
<stop offset="1" stop-color="white" stop-opacity="0.7"/>
</linearGradient>
<linearGradient id="paint2_linear_2_17205" x1="13.5811" y1="0.699707" x2="13.5811" y2="56.7291" gradientUnits="userSpaceOnUse">
<stop stop-color="white"/>
<stop offset="1" stop-color="white" stop-opacity="0.7"/>
</linearGradient>
<linearGradient id="paint3_linear_2_17205" x1="131.17" y1="0.699707" x2="131.17" y2="56.7291" gradientUnits="userSpaceOnUse">
<stop stop-color="white"/>
<stop offset="1" stop-color="white" stop-opacity="0.7"/>
</linearGradient>
<clipPath id="clip0_2_17205">
<rect width="145" height="56.9259" fill="white" transform="translate(0.0114746 0.479492)"/>
</clipPath>
</defs>
</svg>
